Simulation
nRows=20
nColumns=15
endheader
time  TH_x TH_y TH_z SC_y  SC_z  SC_x  AC_y  AC_z  AC_x  GH_y  GH_z  GH_yy  EL_x  PS_y
1.55  0.000000  0.000000  0.000000  -34.61518007000602  6.987601762547517  67.84180025692118  50.44453916570362  -28.726916866640888  -31.77803612748919  21.279354707410555  56.160658286818816  -18.960731022013906  17.949313873782963  0.000000
1.581  0.000000  0.000000  0.000000  -34.931414218522086  7.2595190967491945  68.48742726199146  50.42209340787941  -28.64792951889524  -31.623892053609524  21.15470448761465  56.655002029448994  -19.028243590917068  17.925430509633504  0.000000
1.612  0.000000  0.000000  0.000000  -35.21867180893937  7.495164541396908  69.05159899373989  50.406173252272325  -28.594401650505723  -31.472111316013567  21.026295519921753  57.09307979125779  -19.065111554560925  17.911935425078962  0.000000
1.643  0.000000  0.000000  0.000000  -35.475838833032405  7.6868874090414225  69.53733233277346  50.40179600703652  -28.565475690983  -31.33158287880918  20.899102386733176  57.465584679475974  -19.082861688114058  17.912916861045524  0.000000
1.674  0.000000  0.000000  0.000000  -35.70199659542557  7.833285819990978  69.94342547207835  50.40801145695172  -28.556289755424075  -31.211826696926913  20.789347514948837  57.75717914664717  -19.094776656503992  17.92809912891182  0.000000
1.705  0.000000  0.000000  0.000000  -35.90159866339936  7.938893778243517  70.27779747400587  50.418276462537605  -28.561597834850662  -31.12248767183993  20.717439671786853  57.94999966919124  -19.109426563801158  17.95347429364105  0.000000
1.736  0.000000  0.000000  0.000000  -36.07122854520712  8.007860350777255  70.53951461851476  50.4248853019076  -28.57932711324964  -31.073588028147448  20.698537556018806  58.03142223347953  -19.130279690877245  17.983748569188865  0.000000
1.767  0.000000  0.000000  0.000000  -36.2057841886583  8.043972980552507  70.73224056512355  50.419084569200216  -28.61283360726182  -31.075634666984588  20.73847702527621  57.99687840183498  -19.158444991245926  18.01432644246364  0.000000
1.798  0.000000  0.000000  0.000000  -36.29182785452377  8.047760364955737  70.8498933645535  50.39465286716148  -28.669949178860087  -31.137842879578997  20.834054897711795  57.849897772153874  -19.1955900469384  18.041697080752453  0.000000
1.829  0.000000  0.000000  0.000000  -36.3203673322834  8.01865505420799  70.89409762576636  50.348058760456595  -28.760309017054954  -31.26596383680741  20.977614775142207  57.5969282474058  -19.247507420466448  18.06360426768378  0.000000
1.8599999999999999  0.000000  0.000000  0.000000  -36.28248276155341  7.9521121108824495  70.86201528005465  50.28242349773638  -28.89217629036191  -31.45950003546236  21.160384989521948  57.24318785532774  -19.32708103524183  18.07877541279988  0.000000
1.891  0.000000  0.000000  0.000000  -36.179732577630496  7.841961990454886  70.76248798114605  50.20554170414872  -29.071598258887846  -31.712084211010556  21.37454705773206  56.790442566448945  -19.45184090105424  18.08703314373325  0.000000
1.922  0.000000  0.000000  0.000000  -36.01506315877873  7.6816688444228465  70.59834754466472  50.12715091504689  -29.302927240385173  -32.013999468960414  21.612628699195646  56.24066069334306  -19.63637821768227  18.089755213906027  0.000000
1.953  0.000000  0.000000  0.000000  -35.799841181968  7.469239562566175  70.37977131465108  50.05172308693002  -29.589840069126787  -32.35640382063291  21.867940027336797  55.59787094352486  -19.88169246349636  18.091247426755906  0.000000
1.984  0.000000  0.000000  0.000000  -35.542745097053896  7.207121369651771  70.10763535290005  49.97624315916758  -29.935177716452543  -32.73469105001498  22.133712970227723  54.87086961494836  -20.170581995731517  18.09950142373595  0.000000
2.015  0.000000  0.000000  0.000000  -35.25694026283899  6.903163969816222  69.78987328485114  49.8894540949999  -30.3403863963044  -33.14814922621188  22.404184315792637  54.07034267375075  -20.472347447934638  18.124633001676322  0.000000
2.046  0.000000  0.000000  0.000000  -34.94980568946558  6.564823179798812  69.42807075916409  49.778784500421914  -30.804409025330003  -33.59796013295379  22.673865110667553  53.207808988723244  -20.755412565614595  18.17453223363985  0.000000
2.077  0.000000  0.000000  0.000000  -34.6309727113342  6.197291578068566  69.03444609847023  49.63366322092232  -31.32306946383661  -34.08508135932245  22.93857113039044  52.29240987875268  -20.998061413528742  18.251289586434137  0.000000
2.108  0.000000  0.000000  0.000000  -34.306186617708576  5.802171694301153  68.61665702927871  49.44905611114686  -31.890229186450718  -34.60929758234816  23.19545557062859  51.331702026914904  -21.19216642312847  18.3509329808881  0.000000
2.139  0.000000  0.000000  0.000000  -33.986551190648555  5.380866980606971  68.19059696078453  49.22280239268325  -32.4983067522774  -35.169418871609594  23.44369242943276  50.33101148399236  -21.339328561099276  18.46637804322739  0.000000
